<svg width="867" height="874" viewBox="0 0 867 874" fill="none" xmlns="http://www.w3.org/2000/svg">
<g filter="url(#filter0_d_1_2)">
<mask id="path-1-inside-1_1_2" fill="white">
<path d="M744.764 300.267C743.58 300.694 736.222 302.399 728.272 304.019C720.407 305.724 713.134 307.429 712.204 307.855C711.274 308.281 708.314 312.203 705.607 316.636L700.702 324.65L695.797 325.673C687.932 327.293 688.101 327.378 688.101 321.751C688.101 317.83 687.763 316.38 686.41 315.187C684.719 313.652 684.38 313.652 673.471 315.869C654.189 319.876 647.169 321.666 645.647 323.03C644.209 324.309 644.125 327.719 644.125 375.291V426.187L639.727 427.125C637.275 427.637 633.807 428.319 632.116 428.66L628.902 429.171V385.777C628.902 351.079 628.649 342.042 627.803 340.848C626.788 339.484 626.196 339.399 622.221 340.251C619.853 340.763 617.485 341.189 617.062 341.189C616.555 341.189 616.217 338.887 616.217 336.159C616.217 329.851 614.779 328.06 610.381 328.657C602.178 329.68 576.215 336.074 574.693 337.438C573.17 338.802 573.086 340.251 573.086 361.991C573.086 375.461 572.748 384.669 572.325 384.242C571.902 383.731 570.126 377.081 568.434 369.323C566.743 361.565 564.967 354.915 564.544 354.489C564.037 353.977 562.261 353.977 559.555 354.489L555.411 355.341L554.396 350.652C553.127 344.258 551.69 342.042 548.645 342.042C547.292 342.042 538.243 343.747 528.602 345.878C516.255 348.606 510.757 350.226 509.996 351.249C509.404 352.017 508.474 354.915 507.798 357.729C506.444 363.867 505.768 364.89 502.3 365.572L499.51 366.083V361.48C499.51 356.194 497.903 353.977 494.266 353.977C492.998 353.977 485.809 355.341 478.198 356.961C465.343 359.689 459 361.053 429.316 367.703C423.058 369.067 413.332 371.113 407.835 372.307C394.05 375.206 391.091 376.058 389.399 377.593C388.046 378.786 387.877 380.747 387.877 394.643C387.877 409.392 387.961 410.33 389.653 412.035C391.006 413.399 392.021 413.74 394.135 413.314C395.573 412.973 398.194 412.547 399.97 412.206L403.099 411.694V418.259C403.099 425.846 402.592 425.676 413.417 423.033C417.307 422.095 420.69 421.328 421.113 421.328C421.451 421.328 421.705 440.851 421.705 464.637C421.705 515.448 420.944 511.441 430.923 510.504L436.758 509.992L437.097 515.875C437.266 519.199 437.689 522.098 438.027 522.439C438.619 523.036 467.965 517.068 474.731 515.022C477.944 513.999 478.367 513.061 478.367 506.156C478.367 503.172 478.621 500.529 479.044 500.273C479.382 500.103 481.073 499.676 482.765 499.335L485.894 498.738L486.148 504.962L486.401 511.271L489.361 511.186C493.674 511.1 518.369 505.644 519.553 504.536C520.145 504.024 522.174 497.971 524.12 491.236C526.065 484.416 528.179 478.448 528.856 477.937C529.532 477.34 531.816 476.658 534.014 476.317C536.213 476.061 538.581 475.635 539.342 475.379C540.442 475.123 540.865 475.805 541.287 478.448C541.964 482.881 544.501 485.524 547.546 484.927C557.017 483.052 556.172 482.711 557.779 489.105C558.286 490.98 559.216 493.282 559.808 494.22C560.992 495.755 562.007 495.584 592.199 488.849C609.366 485.013 630.678 480.324 639.474 478.448C648.353 476.572 656.388 474.612 657.487 474.015C659.094 473.162 659.348 472.395 659.348 467.706C659.348 462.079 659.855 459.692 661.124 459.692C661.546 459.692 661.885 462.42 661.885 465.66C661.885 473.077 662.307 473.333 671.526 471.287C675.331 470.434 682.943 468.814 688.524 467.621C694.106 466.427 699.349 464.893 700.11 464.125C701.464 463.017 701.633 460.545 701.802 441.107L702.056 419.367L712.881 431.899C723.198 443.835 723.79 444.346 726.919 444.346C729.795 444.346 730.556 444.858 734.277 449.376C736.56 452.19 738.844 454.662 739.266 454.833C739.774 455.088 745.102 454.151 751.106 452.787C757.195 451.423 765.906 449.462 770.557 448.524C776.985 447.16 779.437 446.222 780.96 444.602C781.974 443.494 782.82 442.045 782.82 441.448C782.82 439.999 779.607 436.162 764.976 419.964C758.718 412.973 747.893 400.867 741.042 392.938L728.611 378.701L738.674 362.673C750.937 343.235 765.483 319.194 766.836 316.125C767.682 314.249 767.682 313.652 766.583 312.544C765.399 311.265 764.722 311.265 759.902 312.459C756.942 313.226 753.221 313.993 751.698 314.334L748.907 314.931L751.529 310.668C752.882 308.367 754.066 305.553 754.066 304.36C754.066 300.267 750.007 298.477 744.764 300.267ZM743.918 309.219C742.818 310.583 736.983 312.459 725.397 315.102L717.532 316.892L704.677 338.205C686.241 368.812 686.495 368.471 684.549 368.471C682.351 368.471 682.435 368.215 690.469 355.086C694.106 349.118 697.996 342.639 699.096 340.763C708.652 324.309 715.587 313.823 717.194 313.482C726.327 311.265 741.381 308.026 742.988 308.026C744.594 307.94 744.764 308.111 743.918 309.219ZM681.336 322.348C681.336 323.797 679.137 324.821 672.879 326.185C660.447 328.827 654.865 330.106 653.428 330.533C652.159 330.959 650.214 328.742 651.144 327.89C651.652 327.378 677.446 321.751 679.475 321.666C680.49 321.581 681.336 321.922 681.336 322.348ZM609.451 336.927C609.451 338.291 606.914 339.228 597.273 341.616C585.095 344.514 581.035 345.026 580.274 343.832C579.936 343.235 579.851 342.553 580.105 342.298C580.782 341.701 604.377 336.245 607.168 336.159C608.436 336.074 609.451 336.415 609.451 336.927ZM546.869 349.715C546.869 351.079 543.232 353.04 539.173 353.892C518.623 358.155 516.424 358.922 516.424 362.162C516.424 362.673 514.901 368.13 513.125 374.097C511.265 380.15 508.812 388.761 507.713 393.194C506.529 397.627 502.723 411.438 499.256 423.886C495.704 436.333 491.729 450.485 490.291 455.43C481.75 485.865 479.382 492.941 477.521 492.941C477.014 492.941 476.76 492.259 477.014 491.407C478.959 485.268 484.033 467.45 486.74 457.561C488.6 450.996 491.475 440.595 493.167 434.542C501.032 406.409 511.434 369.067 513.041 362.759L514.901 355.768L522.597 354.063C530.378 352.272 545.008 349.118 546.277 348.947C546.615 348.862 546.869 349.203 546.869 349.715ZM491.898 362.417C491.898 364.293 491.137 364.549 456.802 371.966C452.658 372.904 445.469 374.353 440.818 375.291C436.251 376.229 432.276 377.166 431.938 377.337C431.684 377.507 427.625 378.445 422.974 379.468C411.303 381.855 399.717 384.413 397.01 385.095C394.981 385.607 394.642 385.436 394.642 383.987C394.642 382.537 395.657 382.026 401.239 380.832C407.666 379.468 416.123 377.593 430.162 374.438C434.137 373.586 446.484 370.858 457.647 368.385C468.811 365.998 480.82 363.27 484.287 362.417C492.321 360.542 491.898 360.542 491.898 362.417ZM494.097 405.726C492.406 411.865 487.078 430.962 483.949 442.641C481.919 450.4 479.805 457.646 479.297 458.84C478.705 460.374 478.452 453.213 478.452 434.457L478.367 407.858L485.386 406.153C494.351 404.021 494.605 403.936 494.097 405.726ZM538.412 434.031C538.412 434.969 537.735 435.906 536.974 436.162C535.367 436.588 516.424 440.936 515.916 440.936C515.747 440.936 515.578 440.169 515.578 439.317C515.578 437.356 515.578 437.356 527.418 434.969C532.238 433.946 536.382 433.008 536.636 432.752C537.482 431.899 538.412 432.496 538.412 434.031ZM641.926 435.395C641.334 436.844 641.165 436.844 630.594 439.231C626.196 440.169 621.037 441.363 619.177 441.789C611.312 443.579 611.142 443.579 610.635 442.215C610.297 441.448 610.297 440.681 610.466 440.51C610.635 440.254 614.61 439.317 619.261 438.293C623.828 437.27 629.748 435.992 632.285 435.395C638.966 433.775 642.518 433.775 641.926 435.395Z"/>
</mask>
<path d="M744.764 300.267C743.58 300.694 736.222 302.399 728.272 304.019C720.407 305.724 713.134 307.429 712.204 307.855C711.274 308.281 708.314 312.203 705.607 316.636L700.702 324.65L695.797 325.673C687.932 327.293 688.101 327.378 688.101 321.751C688.101 317.83 687.763 316.38 686.41 315.187C684.719 313.652 684.38 313.652 673.471 315.869C654.189 319.876 647.169 321.666 645.647 323.03C644.209 324.309 644.125 327.719 644.125 375.291V426.187L639.727 427.125C637.275 427.637 633.807 428.319 632.116 428.66L628.902 429.171V385.777C628.902 351.079 628.649 342.042 627.803 340.848C626.788 339.484 626.196 339.399 622.221 340.251C619.853 340.763 617.485 341.189 617.062 341.189C616.555 341.189 616.217 338.887 616.217 336.159C616.217 329.851 614.779 328.06 610.381 328.657C602.178 329.68 576.215 336.074 574.693 337.438C573.17 338.802 573.086 340.251 573.086 361.991C573.086 375.461 572.748 384.669 572.325 384.242C571.902 383.731 570.126 377.081 568.434 369.323C566.743 361.565 564.967 354.915 564.544 354.489C564.037 353.977 562.261 353.977 559.555 354.489L555.411 355.341L554.396 350.652C553.127 344.258 551.69 342.042 548.645 342.042C547.292 342.042 538.243 343.747 528.602 345.878C516.255 348.606 510.757 350.226 509.996 351.249C509.404 352.017 508.474 354.915 507.798 357.729C506.444 363.867 505.768 364.89 502.3 365.572L499.51 366.083V361.48C499.51 356.194 497.903 353.977 494.266 353.977C492.998 353.977 485.809 355.341 478.198 356.961C465.343 359.689 459 361.053 429.316 367.703C423.058 369.067 413.332 371.113 407.835 372.307C394.05 375.206 391.091 376.058 389.399 377.593C388.046 378.786 387.877 380.747 387.877 394.643C387.877 409.392 387.961 410.33 389.653 412.035C391.006 413.399 392.021 413.74 394.135 413.314C395.573 412.973 398.194 412.547 399.97 412.206L403.099 411.694V418.259C403.099 425.846 402.592 425.676 413.417 423.033C417.307 422.095 420.69 421.328 421.113 421.328C421.451 421.328 421.705 440.851 421.705 464.637C421.705 515.448 420.944 511.441 430.923 510.504L436.758 509.992L437.097 515.875C437.266 519.199 437.689 522.098 438.027 522.439C438.619 523.036 467.965 517.068 474.731 515.022C477.944 513.999 478.367 513.061 478.367 506.156C478.367 503.172 478.621 500.529 479.044 500.273C479.382 500.103 481.073 499.676 482.765 499.335L485.894 498.738L486.148 504.962L486.401 511.271L489.361 511.186C493.674 511.1 518.369 505.644 519.553 504.536C520.145 504.024 522.174 497.971 524.12 491.236C526.065 484.416 528.179 478.448 528.856 477.937C529.532 477.34 531.816 476.658 534.014 476.317C536.213 476.061 538.581 475.635 539.342 475.379C540.442 475.123 540.865 475.805 541.287 478.448C541.964 482.881 544.501 485.524 547.546 484.927C557.017 483.052 556.172 482.711 557.779 489.105C558.286 490.98 559.216 493.282 559.808 494.22C560.992 495.755 562.007 495.584 592.199 488.849C609.366 485.013 630.678 480.324 639.474 478.448C648.353 476.572 656.388 474.612 657.487 474.015C659.094 473.162 659.348 472.395 659.348 467.706C659.348 462.079 659.855 459.692 661.124 459.692C661.546 459.692 661.885 462.42 661.885 465.66C661.885 473.077 662.307 473.333 671.526 471.287C675.331 470.434 682.943 468.814 688.524 467.621C694.106 466.427 699.349 464.893 700.11 464.125C701.464 463.017 701.633 460.545 701.802 441.107L702.056 419.367L712.881 431.899C723.198 443.835 723.79 444.346 726.919 444.346C729.795 444.346 730.556 444.858 734.277 449.376C736.56 452.19 738.844 454.662 739.266 454.833C739.774 455.088 745.102 454.151 751.106 452.787C757.195 451.423 765.906 449.462 770.557 448.524C776.985 447.16 779.437 446.222 780.96 444.602C781.974 443.494 782.82 442.045 782.82 441.448C782.82 439.999 779.607 436.162 764.976 419.964C758.718 412.973 747.893 400.867 741.042 392.938L728.611 378.701L738.674 362.673C750.937 343.235 765.483 319.194 766.836 316.125C767.682 314.249 767.682 313.652 766.583 312.544C765.399 311.265 764.722 311.265 759.902 312.459C756.942 313.226 753.221 313.993 751.698 314.334L748.907 314.931L751.529 310.668C752.882 308.367 754.066 305.553 754.066 304.36C754.066 300.267 750.007 298.477 744.764 300.267ZM743.918 309.219C742.818 310.583 736.983 312.459 725.397 315.102L717.532 316.892L704.677 338.205C686.241 368.812 686.495 368.471 684.549 368.471C682.351 368.471 682.435 368.215 690.469 355.086C694.106 349.118 697.996 342.639 699.096 340.763C708.652 324.309 715.587 313.823 717.194 313.482C726.327 311.265 741.381 308.026 742.988 308.026C744.594 307.94 744.764 308.111 743.918 309.219ZM681.336 322.348C681.336 323.797 679.137 324.821 672.879 326.185C660.447 328.827 654.865 330.106 653.428 330.533C652.159 330.959 650.214 328.742 651.144 327.89C651.652 327.378 677.446 321.751 679.475 321.666C680.49 321.581 681.336 321.922 681.336 322.348ZM609.451 336.927C609.451 338.291 606.914 339.228 597.273 341.616C585.095 344.514 581.035 345.026 580.274 343.832C579.936 343.235 579.851 342.553 580.105 342.298C580.782 341.701 604.377 336.245 607.168 336.159C608.436 336.074 609.451 336.415 609.451 336.927ZM546.869 349.715C546.869 351.079 543.232 353.04 539.173 353.892C518.623 358.155 516.424 358.922 516.424 362.162C516.424 362.673 514.901 368.13 513.125 374.097C511.265 380.15 508.812 388.761 507.713 393.194C506.529 397.627 502.723 411.438 499.256 423.886C495.704 436.333 491.729 450.485 490.291 455.43C481.75 485.865 479.382 492.941 477.521 492.941C477.014 492.941 476.76 492.259 477.014 491.407C478.959 485.268 484.033 467.45 486.74 457.561C488.6 450.996 491.475 440.595 493.167 434.542C501.032 406.409 511.434 369.067 513.041 362.759L514.901 355.768L522.597 354.063C530.378 352.272 545.008 349.118 546.277 348.947C546.615 348.862 546.869 349.203 546.869 349.715ZM491.898 362.417C491.898 364.293 491.137 364.549 456.802 371.966C452.658 372.904 445.469 374.353 440.818 375.291C436.251 376.229 432.276 377.166 431.938 377.337C431.684 377.507 427.625 378.445 422.974 379.468C411.303 381.855 399.717 384.413 397.01 385.095C394.981 385.607 394.642 385.436 394.642 383.987C394.642 382.537 395.657 382.026 401.239 380.832C407.666 379.468 416.123 377.593 430.162 374.438C434.137 373.586 446.484 370.858 457.647 368.385C468.811 365.998 480.82 363.27 484.287 362.417C492.321 360.542 491.898 360.542 491.898 362.417ZM494.097 405.726C492.406 411.865 487.078 430.962 483.949 442.641C481.919 450.4 479.805 457.646 479.297 458.84C478.705 460.374 478.452 453.213 478.452 434.457L478.367 407.858L485.386 406.153C494.351 404.021 494.605 403.936 494.097 405.726ZM538.412 434.031C538.412 434.969 537.735 435.906 536.974 436.162C535.367 436.588 516.424 440.936 515.916 440.936C515.747 440.936 515.578 440.169 515.578 439.317C515.578 437.356 515.578 437.356 527.418 434.969C532.238 433.946 536.382 433.008 536.636 432.752C537.482 431.899 538.412 432.496 538.412 434.031ZM641.926 435.395C641.334 436.844 641.165 436.844 630.594 439.231C626.196 440.169 621.037 441.363 619.177 441.789C611.312 443.579 611.142 443.579 610.635 442.215C610.297 441.448 610.297 440.681 610.466 440.51C610.635 440.254 614.61 439.317 619.261 438.293C623.828 437.27 629.748 435.992 632.285 435.395C638.966 433.775 642.518 433.775 641.926 435.395Z" fill="#BC9BF2" stroke="#FAF8F8" stroke-width="2" mask="url(#path-1-inside-1_1_2)"/>
<mask id="path-2-inside-2_1_2" fill="white">
<path d="M327.621 388.164C324.154 389.017 316.204 390.892 309.946 392.256C297.43 395.07 296.246 395.752 292.44 402.828C287.704 411.779 284.152 416.724 283.814 415.019C283.476 413.399 282.546 413.399 274.596 415.019C271.805 415.531 271.805 415.531 271.805 412.206C271.805 407.176 270.283 403.51 267.915 402.913C266.815 402.657 258.95 403.936 250.24 405.897C241.613 407.858 233.833 409.392 232.987 409.392C232.142 409.392 230.45 410.16 229.182 411.183C227.152 412.803 226.983 413.485 226.983 418.856C226.983 425.25 226.983 425.25 220.894 426.784C218.526 427.296 218.526 427.296 218.526 422.692C218.526 417.406 216.665 414.252 213.367 414.252C210.576 414.252 178.778 421.243 176.917 422.266C176.071 422.692 174.296 423.033 172.858 423.033C171.42 423.033 162.371 424.823 152.73 426.955C143.089 429.086 132.771 431.388 129.727 431.985C126.682 432.667 120.086 434.201 114.927 435.31C109.853 436.503 101.819 438.208 97.1674 439.231C92.516 440.169 87.3572 441.277 85.7504 441.704C84.1436 442.13 79.4076 443.153 75.1791 443.92C63.4238 446.307 63.7621 445.711 63.7621 464.552C63.7621 479.045 63.8467 480.238 65.4535 481.858C67.4832 483.904 68.6672 483.904 74.418 482.37L78.8156 481.176L79.323 485.098C79.5768 487.144 79.8305 490.213 79.8305 491.748C79.8305 495.158 79.7459 495.158 89.6406 492.941C93.7846 492.003 97.6748 491.236 98.2668 491.236C99.0279 491.236 99.2816 500.103 99.2816 532.755C99.2816 555.688 99.6199 574.785 99.9582 575.296C101.565 577.769 104.187 578.195 109.346 577.002L114.504 575.808V581.435C114.504 584.589 114.843 587.658 115.265 588.34C115.942 589.363 118.648 588.937 131.503 586.038C140.045 584.078 148.502 582.287 150.193 581.946C155.775 581.009 155.69 581.179 156.282 554.324C156.536 540.939 156.789 518.091 156.789 503.427V476.913L164.485 475.123C168.714 474.1 172.604 473.333 173.112 473.333C173.873 473.333 174.126 483.904 174.126 515.875C174.126 557.223 174.211 558.416 175.818 560.292C177.509 562.253 179.962 562.253 187.488 560.633L189.772 560.121V566.174C189.772 570.693 190.11 572.398 190.956 572.739C192.478 573.336 227.829 565.578 229.351 564.384C230.027 563.787 230.366 561.059 230.366 556.37C230.366 549.379 230.45 549.209 232.395 549.209C233.495 549.209 236.116 548.953 238.315 548.697L242.205 548.1V554.239C242.205 558.587 242.544 560.462 243.389 560.803C244.912 561.4 281.869 553.045 283.053 551.852C283.729 551.17 284.237 543.923 284.491 529.259L284.913 507.605L295.738 520.308C306.563 532.925 306.648 533.011 310.115 533.011C313.414 533.011 314.006 533.352 317.896 538.041C320.264 540.854 322.632 543.326 323.139 543.582C324.239 544.094 361.28 536.165 364.663 534.716C366.016 534.119 366.524 533.181 366.524 531.22C366.524 529.089 365.509 527.384 362.126 523.718C354.853 515.875 339.208 498.056 337.263 495.414C336.332 494.05 334.472 491.918 333.119 490.639C331.85 489.275 328.805 485.78 326.353 482.711C323.9 479.642 320.856 476.231 319.587 475.038C318.319 473.844 316.543 471.884 315.613 470.519L313.921 468.218L320.94 457.305C324.746 451.337 329.567 443.75 331.596 440.51C333.711 437.185 339.715 427.722 344.958 419.452C350.202 411.183 354.769 403.68 355.022 402.743C355.445 401.549 355.022 400.611 353.838 399.759C352.231 398.65 351.217 398.65 344.705 400.1C340.73 401.038 337.347 401.72 337.178 401.72C337.009 401.72 338.024 399.673 339.461 397.116C342.083 392.427 342.168 390.807 339.63 387.823C338.024 386.033 335.74 386.118 327.621 388.164ZM332.696 394.899C332.696 396.349 327.96 398.224 318.657 400.441C302.25 404.277 304.534 402.657 295.569 417.236C272.482 454.833 270.452 457.987 269.183 457.987C266.985 457.987 267.83 455.003 271.721 449.206C274.088 445.711 277.979 439.402 280.516 435.224C294.893 411.268 301.828 400.782 303.434 400.441C304.449 400.27 310.961 398.821 317.896 397.201C332.611 393.791 332.696 393.791 332.696 394.899ZM264.194 411.097C264.194 412.632 259.12 414.337 247.703 416.639C233.918 419.538 234.256 419.452 233.918 417.747C233.664 416.298 233.748 416.213 253.622 412.035C262.587 410.074 264.194 409.989 264.194 411.097ZM211.76 422.18C211.76 423.971 207.447 425.505 195.015 428.234C184.021 430.535 181.907 430.791 181.315 429.768C180.215 428.148 181.061 427.807 193.155 425.25C198.99 424.056 204.91 422.692 206.263 422.266C209.73 421.157 211.76 421.157 211.76 422.18ZM169.475 430.45C169.306 433.093 166.177 434.201 145.795 438.805C63.8467 457.049 71.1197 455.6 70.6969 453.554C70.3586 451.849 69.09 452.275 93.3617 446.904C112.39 442.812 168.798 430.194 169.306 429.939C169.39 429.939 169.475 430.109 169.475 430.45Z"/>
</mask>
<path d="M327.621 388.164C324.154 389.017 316.204 390.892 309.946 392.256C297.43 395.07 296.246 395.752 292.44 402.828C287.704 411.779 284.152 416.724 283.814 415.019C283.476 413.399 282.546 413.399 274.596 415.019C271.805 415.531 271.805 415.531 271.805 412.206C271.805 407.176 270.283 403.51 267.915 402.913C266.815 402.657 258.95 403.936 250.24 405.897C241.613 407.858 233.833 409.392 232.987 409.392C232.142 409.392 230.45 410.16 229.182 411.183C227.152 412.803 226.983 413.485 226.983 418.856C226.983 425.25 226.983 425.25 220.894 426.784C218.526 427.296 218.526 427.296 218.526 422.692C218.526 417.406 216.665 414.252 213.367 414.252C210.576 414.252 178.778 421.243 176.917 422.266C176.071 422.692 174.296 423.033 172.858 423.033C171.42 423.033 162.371 424.823 152.73 426.955C143.089 429.086 132.771 431.388 129.727 431.985C126.682 432.667 120.086 434.201 114.927 435.31C109.853 436.503 101.819 438.208 97.1674 439.231C92.516 440.169 87.3572 441.277 85.7504 441.704C84.1436 442.13 79.4076 443.153 75.1791 443.92C63.4238 446.307 63.7621 445.711 63.7621 464.552C63.7621 479.045 63.8467 480.238 65.4535 481.858C67.4832 483.904 68.6672 483.904 74.418 482.37L78.8156 481.176L79.323 485.098C79.5768 487.144 79.8305 490.213 79.8305 491.748C79.8305 495.158 79.7459 495.158 89.6406 492.941C93.7846 492.003 97.6748 491.236 98.2668 491.236C99.0279 491.236 99.2816 500.103 99.2816 532.755C99.2816 555.688 99.6199 574.785 99.9582 575.296C101.565 577.769 104.187 578.195 109.346 577.002L114.504 575.808V581.435C114.504 584.589 114.843 587.658 115.265 588.34C115.942 589.363 118.648 588.937 131.503 586.038C140.045 584.078 148.502 582.287 150.193 581.946C155.775 581.009 155.69 581.179 156.282 554.324C156.536 540.939 156.789 518.091 156.789 503.427V476.913L164.485 475.123C168.714 474.1 172.604 473.333 173.112 473.333C173.873 473.333 174.126 483.904 174.126 515.875C174.126 557.223 174.211 558.416 175.818 560.292C177.509 562.253 179.962 562.253 187.488 560.633L189.772 560.121V566.174C189.772 570.693 190.11 572.398 190.956 572.739C192.478 573.336 227.829 565.578 229.351 564.384C230.027 563.787 230.366 561.059 230.366 556.37C230.366 549.379 230.45 549.209 232.395 549.209C233.495 549.209 236.116 548.953 238.315 548.697L242.205 548.1V554.239C242.205 558.587 242.544 560.462 243.389 560.803C244.912 561.4 281.869 553.045 283.053 551.852C283.729 551.17 284.237 543.923 284.491 529.259L284.913 507.605L295.738 520.308C306.563 532.925 306.648 533.011 310.115 533.011C313.414 533.011 314.006 533.352 317.896 538.041C320.264 540.854 322.632 543.326 323.139 543.582C324.239 544.094 361.28 536.165 364.663 534.716C366.016 534.119 366.524 533.181 366.524 531.22C366.524 529.089 365.509 527.384 362.126 523.718C354.853 515.875 339.208 498.056 337.263 495.414C336.332 494.05 334.472 491.918 333.119 490.639C331.85 489.275 328.805 485.78 326.353 482.711C323.9 479.642 320.856 476.231 319.587 475.038C318.319 473.844 316.543 471.884 315.613 470.519L313.921 468.218L320.94 457.305C324.746 451.337 329.567 443.75 331.596 440.51C333.711 437.185 339.715 427.722 344.958 419.452C350.202 411.183 354.769 403.68 355.022 402.743C355.445 401.549 355.022 400.611 353.838 399.759C352.231 398.65 351.217 398.65 344.705 400.1C340.73 401.038 337.347 401.72 337.178 401.72C337.009 401.72 338.024 399.673 339.461 397.116C342.083 392.427 342.168 390.807 339.63 387.823C338.024 386.033 335.74 386.118 327.621 388.164ZM332.696 394.899C332.696 396.349 327.96 398.224 318.657 400.441C302.25 404.277 304.534 402.657 295.569 417.236C272.482 454.833 270.452 457.987 269.183 457.987C266.985 457.987 267.83 455.003 271.721 449.206C274.088 445.711 277.979 439.402 280.516 435.224C294.893 411.268 301.828 400.782 303.434 400.441C304.449 400.27 310.961 398.821 317.896 397.201C332.611 393.791 332.696 393.791 332.696 394.899ZM264.194 411.097C264.194 412.632 259.12 414.337 247.703 416.639C233.918 419.538 234.256 419.452 233.918 417.747C233.664 416.298 233.748 416.213 253.622 412.035C262.587 410.074 264.194 409.989 264.194 411.097ZM211.76 422.18C211.76 423.971 207.447 425.505 195.015 428.234C184.021 430.535 181.907 430.791 181.315 429.768C180.215 428.148 181.061 427.807 193.155 425.25C198.99 424.056 204.91 422.692 206.263 422.266C209.73 421.157 211.76 421.157 211.76 422.18ZM169.475 430.45C169.306 433.093 166.177 434.201 145.795 438.805C63.8467 457.049 71.1197 455.6 70.6969 453.554C70.3586 451.849 69.09 452.275 93.3617 446.904C112.39 442.812 168.798 430.194 169.306 429.939C169.39 429.939 169.475 430.109 169.475 430.45Z" fill="#BC9BF2" stroke="#FAF8F8" stroke-width="2" mask="url(#path-2-inside-2_1_2)"/>
<path d="M348.796 490.309C349.318 490.337 350.079 490.287 351.168 490.134C353.343 489.828 356.727 489.13 361.929 487.937V487.936C365.608 487.083 370.325 486.017 374.966 484.973L387.556 482.138L387.562 482.137C390.938 481.414 394.206 480.627 396.765 479.937C398.045 479.592 399.143 479.272 399.987 478.997C400.843 478.718 401.384 478.502 401.604 478.368C402.037 478.077 402.288 477.88 402.483 477.548C402.687 477.2 402.855 476.654 402.974 475.62C403.213 473.547 403.235 469.77 403.235 462.335C403.235 456.408 403.171 452.568 402.993 450.116C402.903 448.889 402.787 448.032 402.643 447.445C402.494 446.84 402.335 446.607 402.233 446.523L402.215 446.507C401.934 446.252 401.48 446.085 400.542 446.125C399.719 446.161 398.596 446.352 397.026 446.713L396.326 446.879L396.321 446.88L391.161 448.073L390.549 448.215V442.727C390.549 440.722 390.462 439.486 390.199 438.571C389.976 437.799 389.623 437.236 389.029 436.62L388.759 436.353L388.755 436.35C388.164 435.775 387.733 435.401 387.248 435.163C386.778 434.933 386.219 434.815 385.355 434.84C384.022 434.879 382.073 435.25 378.814 435.976L375.092 436.82L375.091 436.821L364.234 439.261C362.019 439.757 359.69 440.276 357.381 440.789L350.647 442.278H350.646C346.34 443.214 342.224 444.213 339.051 445.064C337.464 445.489 336.117 445.876 335.1 446.197C334.591 446.359 334.169 446.502 333.843 446.625C333.51 446.751 333.308 446.844 333.215 446.902C332.735 447.218 332.458 447.427 332.249 447.762C332.035 448.106 331.862 448.634 331.744 449.638C331.505 451.657 331.504 455.324 331.504 462.591C331.504 469.423 331.548 473.099 331.777 475.251C331.891 476.324 332.047 476.977 332.247 477.438C332.441 477.883 332.687 478.176 333.04 478.512C333.655 479.097 334.878 479.462 336.876 479.483C338.846 479.503 341.45 479.191 344.693 478.554L344.709 478.551L344.727 478.549C345.154 478.495 345.469 478.749 345.668 479.024C345.866 479.296 346.02 479.676 346.148 480.122C346.405 481.025 346.598 482.367 346.726 484.124L346.725 484.125C346.85 485.554 347.059 486.957 347.307 488.07C347.431 488.627 347.563 489.103 347.696 489.468C347.836 489.855 347.955 490.051 348.02 490.116C348.073 490.17 348.254 490.28 348.796 490.309ZM340.336 454.682C339.339 454.72 338.564 454.614 338.033 454.259C337.448 453.868 337.27 453.261 337.27 452.616C337.27 452.449 337.279 452.204 337.421 451.954C337.561 451.71 337.789 451.525 338.086 451.362C338.665 451.043 339.714 450.696 341.597 450.203C344.444 449.458 349.326 448.346 357.687 446.489L367.261 444.369H367.262C374.442 442.794 378.481 441.936 380.724 441.614C381.826 441.455 382.571 441.412 383.054 441.516C383.309 441.571 383.555 441.679 383.728 441.895C383.901 442.111 383.938 442.359 383.938 442.556C383.938 443.148 383.679 443.668 383.186 444.125C382.708 444.568 381.999 444.966 381.047 445.353C379.379 446.031 376.841 446.726 373.175 447.545L371.534 447.905H371.533C366.95 448.873 359.324 450.626 353.526 452.019L351.166 452.59L351.165 452.591L349.22 453.056C344.903 454.073 342.1 454.615 340.336 454.682Z" fill="#BC9BF2" stroke="#FAF8F8"/>
</g>
<defs>
<filter id="filter0_d_1_2" x="33.7611" y="299.575" width="799.059" height="369.269" filterUnits="userSpaceOnUse" color-interpolation-filters="sRGB">
<feFlood flood-opacity="0" result="BackgroundImageFix"/>
<feColorMatrix in="SourceAlpha" type="matrix" values="0 0 0 0 0 0 0 0 0 0 0 0 0 0 0 0 0 0 127 0" result="hardAlpha"/>
<feOffset dx="10" dy="40"/>
<feGaussianBlur stdDeviation="20"/>
<feComposite in2="hardAlpha" operator="out"/>
<feColorMatrix type="matrix" values="0 0 0 0 0.982348 0 0 0 0 0.982348 0 0 0 0 0.982348 0 0 0 0.25 0"/>
<feBlend mode="normal" in2="BackgroundImageFix" result="effect1_dropShadow_1_2"/>
<feBlend mode="normal" in="SourceGraphic" in2="effect1_dropShadow_1_2" result="shape"/>
</filter>
</defs>
</svg>
